<?xml version="1.0" encoding="UTF-8" standalone="no"?>
<svg
   xmlns:dc="http://purl.org/dc/elements/1.1/"
   xmlns:cc="http://creativecommons.org/ns#"
   xmlns:rdf="http://www.w3.org/1999/02/22-rdf-syntax-ns#"
   xmlns:svg="http://www.w3.org/2000/svg"
   xmlns="http://www.w3.org/2000/svg"
   xmlns:sodipodi="http://sodipodi.sourceforge.net/DTD/sodipodi-0.dtd"
   xmlns:inkscape="http://www.inkscape.org/namespaces/inkscape"
   width="211.89351"
   height="206.91783"
   viewBox="0 0 211.89351 206.91783"
   fill="none"
   version="1.1"
   id="svg870"
   sodipodi:docname="illustration.svg"
   inkscape:version="1.0.2 (e86c8708, 2021-01-15)">
  <metadata
     id="metadata876">
    <rdf:RDF>
      <cc:Work
         rdf:about="">
        <dc:format>image/svg+xml</dc:format>
        <dc:type
           rdf:resource="http://purl.org/dc/dcmitype/StillImage" />
        <dc:title></dc:title>
      </cc:Work>
    </rdf:RDF>
  </metadata>
  <defs
     id="defs874" />
  <sodipodi:namedview
     pagecolor="#ffffff"
     bordercolor="#666666"
     borderopacity="1"
     objecttolerance="10"
     gridtolerance="10"
     guidetolerance="10"
     inkscape:pageopacity="0"
     inkscape:pageshadow="2"
     inkscape:window-width="1440"
     inkscape:window-height="900"
     id="namedview872"
     showgrid="false"
     inkscape:zoom="2.0918728"
     inkscape:cx="100.4148"
     inkscape:cy="105.16289"
     inkscape:window-x="0"
     inkscape:window-y="0"
     inkscape:window-maximized="0"
     inkscape:current-layer="svg870"
     fit-margin-top="0"
     fit-margin-left="0"
     fit-margin-right="0"
     fit-margin-bottom="0" />
  <path
     fill-rule="evenodd"
     clip-rule="evenodd"
     d="m 144.4538,120.61589 c 12.185,-23.913997 2.642,-53.281997 -21.271,-65.466497 -23.913004,-12.1846 -53.281004,-2.6426 -65.466604,21.2725 -12.1842,23.911997 -2.6417,53.279997 21.2716,65.464997 23.914004,12.184 53.282004,2.642 65.466004,-21.271 z"
     fill="#000426"
     id="path837" />
  <path
     fill-rule="evenodd"
     clip-rule="evenodd"
     d="m 170.2768,177.30689 c 15.542,-24.872 7.934,-57.764 -16.963,-73.321 -10.748,-6.715997 -23.558,-9.384997 -36.07,-7.514997 -1.185,0.177 -2.009,1.284 -1.836,2.476 0.174,1.190997 1.28,2.011997 2.469,1.832997 11.488,-1.716997 23.252,0.734 33.126,6.905 22.863,14.286 29.855,44.484 15.587,67.318 -14.268,22.832 -44.475,29.786 -67.337004,15.5 -17.004,-10.625 -25.505,-30.224 -22.384,-49.298 -0.039,-0.022 -0.078,-0.041 -0.117,-0.062 -1.501,-0.847 -2.718,-2.025 -3.643,-3.4 -4.736,21.626 4.496,44.375 23.833,56.458 24.896004,15.557 57.793004,7.979 73.335004,-16.894 z"
     fill="#000426"
     id="path839" />
  <path
     fill-rule="evenodd"
     clip-rule="evenodd"
     d="m 33.680396,27.381193 c -14.219,25.6518 -4.8991,58.1007 20.7771,72.3327 11.0863,6.144997 24.0173,8.139997 36.4143,5.616997 1.175,-0.238 1.939,-1.387 1.704,-2.569 -0.237,-1.179 -1.383,-1.941 -2.562,-1.701 -11.382,2.316 -23.258,0.484 -33.442,-5.160997 -23.5787,-13.07 -32.1416,-42.8608 -19.0879,-66.4104 13.0527,-23.5477001 42.8549,-32.0727001 66.432904,-19.0028 17.536,9.7204 27.053,28.8479 24.933,48.059 0.04,0.0192 0.081,0.0363 0.12,0.0561 1.545,0.7671 2.821,1.8798 3.816,3.2043 3.598,-21.8444 -6.812,-44.0797 -26.754,-55.1341001 -25.677004,-14.2326 -58.132604,-4.9422 -72.351404,20.7092001 z"
     fill="#000426"
     id="path841" />
  <path
     fill-rule="evenodd"
     clip-rule="evenodd"
     d="m 179.3408,33.655793 c -24.597,-15.9738 -57.617,-8.94 -73.606,15.6809 -6.903004,10.6297 -9.795004,23.3912 -8.143004,35.9332 0.156,1.189 1.248,2.032 2.444004,1.879 1.192,-0.153 2.033,-1.244 1.875,-2.436 -1.516,-11.517 1.14,-23.2357 7.481,-33.0011 14.683,-22.6095 44.999,-29.0739 67.581,-14.4092 22.58,14.6635 29.005,44.9873 14.322,67.597297 -10.92,16.815 -30.665,24.974 -49.681,21.519 -0.022,0.039 -0.042,0.078 -0.065,0.117 -0.872,1.486 -2.072,2.682 -3.462,3.583 21.54,5.113 44.447,-3.721 56.866,-22.844 15.989,-24.619997 8.985,-57.645597 -15.612,-73.619097 z"
     fill="#000426"
     id="path843" />
  <mask
     id="mask0"
     mask-type="alpha"
     maskUnits="userSpaceOnUse"
     x="17"
     y="91"
     width="143"
     height="141">
    <path
       fill-rule="evenodd"
       clip-rule="evenodd"
       d="M 159.381,139.47 112.453,231.573 17.6675,183.277 64.5961,91.1746 Z"
       fill="#ffffff"
       id="path845" />
  </mask>
  <g
     mask="url(#mask0)"
     id="g850"
     transform="translate(-36.085204,-36.337107)">
    <path
       fill-rule="evenodd"
       clip-rule="evenodd"
       d="m 63.4665,206.578 c 25.6513,14.218 58.1005,4.899 72.3325,-20.778 6.145,-11.085 8.14,-24.017 5.617,-36.414 -0.238,-1.175 -1.387,-1.939 -2.569,-1.703 -1.179,0.236 -1.941,1.382 -1.7,2.561 2.315,11.382 0.483,23.258 -5.162,33.442 -13.07,23.578 -42.8611,32.142 -66.4102,19.088 -23.5477,-13.053 -32.0729,-42.855 -19.0033,-66.433 9.7204,-17.536 28.8484,-27.053 48.0593,-24.933 0.0194,-0.04 0.0365,-0.081 0.0561,-0.121 0.7673,-1.543 1.8795,-2.82 3.2041,-3.815 -21.8445,-3.598 -44.0792,6.812 -55.1337,26.754 -14.2326,25.677 -4.9427,58.133 20.7092,72.352 z"
       fill="#000426"
       id="path848" />
  </g>
  <path
     fill-rule="evenodd"
     clip-rule="evenodd"
     d="m 88.718796,93.588893 c 3.517,-6.903 11.995004,-9.66 18.898004,-6.143 6.903,3.518 9.657,11.997 6.139,18.899997 -3.515,6.9 -11.994,9.655 -18.896004,6.138 -6.903,-3.517 -9.657,-11.995 -6.141,-18.894997 z"
     fill="#ff4c8b"
     id="path852" />
  <path
     fill-rule="evenodd"
     clip-rule="evenodd"
     d="m 24.766696,165.49889 c 2.0099,-3.945 6.8544,-5.52 10.7989,-3.51 3.9445,2.01 5.5182,6.855 3.5083,10.8 -2.009,3.943 -6.8537,5.517 -10.7982,3.507 -3.9445,-2.01 -5.518,-6.854 -3.509,-10.797 z"
     fill="#000426"
     id="path854" />
  <path
     d="m 24.766696,165.49889 c 2.0099,-3.945 6.8544,-5.52 10.7989,-3.51 3.9445,2.01 5.5182,6.855 3.5083,10.8 -2.009,3.943 -6.8537,5.517 -10.7982,3.507 -3.9445,-2.01 -5.518,-6.854 -3.509,-10.797"
     stroke="#000426"
     stroke-width="4"
     id="path856" />
  <path
     fill-rule="evenodd"
     clip-rule="evenodd"
     d="m 27.136896,21.658493 c 2.7637,-5.4239 9.4248,-7.5898 14.8485,-4.8263 5.4237,2.7635 7.5876,9.426 4.824,14.8499 -2.7624,5.4214 -9.4239,7.586 -14.8476,4.8225 -5.4237,-2.7635 -7.5872,-9.4247 -4.8249,-14.8461 z"
     fill="#000426"
     id="path858" />
  <path
     d="m 27.136896,21.658493 c 2.7637,-5.4239 9.4248,-7.5898 14.8485,-4.8263 5.4237,2.7635 7.5876,9.426 4.824,14.8499 -2.7624,5.4214 -9.4239,7.586 -14.8476,4.8225 -5.4237,-2.7635 -7.5872,-9.4247 -4.8249,-14.8461"
     stroke="#000426"
     stroke-width="4"
     id="path860" />
  <path
     fill-rule="evenodd"
     clip-rule="evenodd"
     d="m 192.8208,70.048893 c 2.261,-4.438 7.711,-6.21 12.149,-3.949 4.437,2.261 6.208,7.712 3.947,12.15 -2.26,4.436 -7.711,6.207 -12.148,3.946 -4.438,-2.261 -6.208,-7.711 -3.948,-12.147 z"
     fill="#000426"
     id="path862" />
  <path
     d="m 192.8208,70.048893 c 2.261,-4.438 7.711,-6.21 12.149,-3.949 4.437,2.261 6.208,7.712 3.947,12.15 -2.26,4.436 -7.711,6.207 -12.148,3.946 -4.438,-2.261 -6.208,-7.711 -3.948,-12.147"
     stroke="#000426"
     stroke-width="4"
     id="path864" />
  <path
     fill-rule="evenodd"
     clip-rule="evenodd"
     d="m 129.6878,194.71189 c 1.758,-3.452 5.997,-4.83 9.449,-3.071 3.451,1.758 4.828,5.998 3.07,9.45 -1.758,3.45 -5.997,4.827 -9.449,3.069 -3.451,-1.759 -4.828,-5.998 -3.07,-9.448 z"
     fill="#000426"
     id="path866" />
  <path
     d="m 129.6878,194.71189 c 1.758,-3.452 5.997,-4.83 9.449,-3.071 3.451,1.758 4.828,5.998 3.07,9.45 -1.758,3.45 -5.997,4.827 -9.449,3.069 -3.451,-1.759 -4.828,-5.998 -3.07,-9.448"
     stroke="#000426"
     stroke-width="4"
     id="path868" />
</svg>
