<svg width="3012" height="718" viewBox="0 0 3012 718" fill="none" xmlns="http://www.w3.org/2000/svg">
<g clip-path="url(#clip0)">
<path d="M814.029 369.48C814.029 252.152 876.578 193.965 999.29 193.965C1049.43 193.965 1079.03 203.027 1104.34 214.474L1082.86 273.137C1050.86 264.552 1037.5 261.214 1000.24 260.728C939.128 259.783 896.641 294.114 896.641 364.701C896.641 435.298 941.524 472.976 1009.8 472.976C1042.74 472.976 1062.33 470.114 1088.09 463.437L1105.29 524.486C1072.82 536.409 1044.66 540.702 1001.21 540.702C877.542 540.702 814.029 480.13 814.029 369.48ZM1332.6 405.727C1332.6 363.756 1322.11 331.801 1278.15 331.801C1235.19 331.801 1223.26 363.756 1223.26 406.213C1223.26 451.037 1236.63 478.222 1279.12 478.222C1322.11 478.222 1332.6 450.083 1332.6 405.727H1332.6ZM1143.03 408.112C1143.03 321.777 1196.99 268.836 1279.6 268.836C1372.23 268.836 1413.78 320.832 1413.78 405.736C1413.78 494.438 1355.51 541.664 1275.29 541.664C1189.35 541.664 1143.03 489.669 1143.03 408.103V408.112ZM1439.6 275.522H1525.06L1568.99 416.697L1582.36 468.683L1597.17 416.697L1645.86 275.522H1729.43L1628.2 535.932H1533.65L1439.6 275.522ZM1912.3 469.637V428.629L1873.17 429.592C1849.76 430.06 1832.59 437.691 1832.59 456.769C1832.59 472.031 1847.38 478.708 1861.7 478.708C1876.98 478.708 1895.13 474.407 1912.31 469.646L1912.3 469.637ZM1755.22 461.529C1755.22 395.711 1815.4 382.357 1866.96 382.357H1912.31V366.132C1912.31 343.248 1897.51 336.571 1865.05 336.571C1839.25 336.571 1811.56 342.294 1787.21 348.008L1771.47 290.298C1801.07 278.861 1835.45 269.322 1876.98 269.322C1957.69 269.322 1990.15 292.215 1990.15 350.879V466.776C1990.15 475.361 1998.75 477.268 2013.54 477.745L2010.68 537.84C2004.48 538.317 1998.25 538.317 1992.05 538.317C1960.55 538.317 1927.13 533.07 1919.96 510.654C1900.87 525.448 1873.65 540.225 1844.98 540.225C1787.7 540.225 1755.22 513.516 1755.22 461.529ZM2072.77 176.309H2152.51V535.941H2072.77V176.309ZM2373.6 379.018C2374.56 347.54 2360.71 325.601 2334.93 325.601C2307.71 325.601 2290.05 344.679 2288.61 379.018H2373.6ZM2206.95 409.534C2206.95 303.185 2262.83 269.322 2341.61 269.322C2423.74 269.322 2455.26 322.739 2455.26 401.435V430.051H2286.23C2285.77 471.068 2318.22 478.699 2359.74 478.699C2377.42 478.699 2407.03 472.976 2434.25 468.206L2446.19 528.769C2417.06 537.363 2379.82 541.664 2348.31 541.664C2262.36 541.664 2206.95 513.516 2206.95 409.534ZM2509.72 275.522H2589.46V301.754C2605.22 289.83 2639.6 268.836 2674.47 268.836C2756.11 268.836 2761.84 313.669 2761.84 372.818V535.941H2682.57V379.495C2682.57 343.725 2674.47 337.525 2647.7 337.525C2623.84 337.525 2602.36 345.156 2589.46 351.356V535.932H2509.72V275.522ZM2840.15 454.852V334.186H2801.97V275.522H2840.15V222.096H2919.41V275.522H3000.12V334.186H2919.41V454.375C2919.41 473.453 2926.58 474.884 2948.08 474.884C2965.74 474.884 3004.42 469.637 3004.42 469.637L3012.06 532.117C2993.43 537.363 2968.13 541.178 2949.03 541.178C2898.89 541.178 2840.15 543.563 2840.15 454.852ZM359.417 167.424V-0.0351562C160.822 -0.0351562 0 160.615 0 358.978C0 557.35 160.83 718.009 359.417 718.009V550.549C253.417 550.549 167.648 464.868 167.648 358.978C167.648 253.106 253.417 167.424 359.417 167.424Z" fill="white"/>
<path d="M551.893 167.424C540.885 167.424 529.985 165.259 519.815 161.051C509.645 156.843 500.405 150.675 492.621 142.9C484.837 135.125 478.663 125.895 474.45 115.737C470.238 105.578 468.07 94.6901 468.07 83.6946C468.07 72.699 470.238 61.8111 474.45 51.6526C478.663 41.494 484.837 32.2637 492.621 24.4887C500.405 16.7137 509.645 10.5462 519.815 6.33839C529.985 2.13058 540.885 -0.0351564 551.893 -0.0351562C574.125 -0.0351559 595.446 8.78634 611.166 24.4887C626.886 40.1911 635.717 61.4881 635.717 83.6946C635.717 105.901 626.886 127.198 611.166 142.9C595.446 158.603 574.125 167.424 551.893 167.424Z" fill="#00D8D5"/>
<path d="M550.488 718C528.256 718 506.935 709.179 491.215 693.477C475.495 677.774 466.664 656.477 466.664 634.271C466.664 612.064 475.495 590.767 491.215 575.065C506.935 559.363 528.256 550.541 550.488 550.541C572.719 550.541 594.04 559.363 609.76 575.065C625.48 590.767 634.312 612.064 634.312 634.271C634.312 656.477 625.48 677.774 609.76 693.477C594.04 709.179 572.719 718 550.488 718Z" fill="#FF4C8B"/>
<path d="M551.195 358.979C551.195 464.868 465.426 550.55 359.417 550.55V167.416C465.417 167.416 551.195 253.089 551.195 358.97" fill="white"/>
</g>
<defs>
<clipPath id="clip0">
<rect width="3012" height="718" fill="white"/>
</clipPath>
</defs>
</svg>
