<svg width="476" height="476" viewBox="0 0 476 476" fill="none" xmlns="http://www.w3.org/2000/svg">
<circle cx="238" cy="238" r="238" fill="white"/>
<path d="M240.57 151.721V76.5127C151.479 76.5127 79.3333 148.662 79.3333 237.75C79.3333 326.841 151.483 398.995 240.57 398.995V323.787C193.018 323.787 154.541 285.306 154.541 237.75C154.541 190.201 193.018 151.721 240.57 151.721Z" fill="#000426"/>
<path d="M326.917 151.721C321.979 151.721 317.089 150.748 312.526 148.858C307.964 146.968 303.819 144.199 300.327 140.707C296.835 137.215 294.065 133.069 292.175 128.507C290.286 123.945 289.313 119.055 289.313 114.117C289.313 109.178 290.286 104.289 292.175 99.7263C294.065 95.1639 296.835 91.0185 300.327 87.5267C303.819 84.0348 307.964 81.2649 312.526 79.3751C317.089 77.4854 321.979 76.5127 326.917 76.5127C336.89 76.5127 346.455 80.4745 353.507 87.5267C360.559 94.5788 364.521 104.143 364.521 114.117C364.521 124.09 360.559 133.655 353.507 140.707C346.455 147.759 336.89 151.721 326.917 151.721Z" fill="#00D8D5"/>
<path d="M326.286 398.991C316.313 398.991 306.748 395.029 299.696 387.977C292.644 380.925 288.682 371.36 288.682 361.387C288.682 351.414 292.644 341.849 299.696 334.797C306.748 327.745 316.313 323.783 326.286 323.783C336.259 323.783 345.824 327.745 352.876 334.797C359.928 341.849 363.89 351.414 363.89 361.387C363.89 371.36 359.928 380.925 352.876 387.977C345.824 395.029 336.259 398.991 326.286 398.991Z" fill="#FF4C8B"/>
<path d="M326.603 237.75C326.603 285.306 288.127 323.787 240.57 323.787V151.717C288.123 151.717 326.603 190.193 326.603 237.746" fill="#000426"/>
</svg>
